<svg width="25" height="27" viewBox="0 0 25 27" fill="none" xmlns="http://www.w3.org/2000/svg" id="img">
<path d="M11.8421 0.5L4.60526 12.2H19.0789L11.8421 0.5ZM11.8421 5.492L14.3816 9.6H9.28947L11.8421 5.492ZM19.0789 14.8C15.8026 14.8 13.1579 17.413 13.1579 20.65C13.1579 23.887 15.8026 26.5 19.0789 26.5C22.3553 26.5 25 23.887 25 20.65C25 17.413 22.3553 14.8 19.0789 14.8ZM19.0789 23.9C17.2632 23.9 15.7895 22.444 15.7895 20.65C15.7895 18.856 17.2632 17.4 19.0789 17.4C20.8947 17.4 22.3684 18.856 22.3684 20.65C22.3684 22.444 20.8947 23.9 19.0789 23.9ZM0 25.85H10.5263V15.45H0V25.85ZM2.63158 18.05H7.89474V23.25H2.63158V18.05Z" fill="currentColor"/>
</svg>