<svg width="26" height="27" viewBox="0 0 26 27" fill="none" xmlns="http://www.w3.org/2000/svg" id="img">
<path d="M21.4048 14.578C21.45 14.226 21.4839 13.874 21.4839 13.5C21.4839 13.126 21.45 12.774 21.4048 12.422L23.7909 10.607C24.0058 10.442 24.0623 10.145 23.9266 9.903L21.6649 6.097C21.5631 5.921 21.3709 5.822 21.1673 5.822C21.0994 5.822 21.0316 5.833 20.975 5.855L18.1592 6.955C17.5712 6.515 16.9379 6.152 16.2481 5.877L15.8183 2.962C15.7844 2.698 15.5469 2.5 15.2642 2.5H10.7408C10.4581 2.5 10.2206 2.698 10.1867 2.962L9.75693 5.877C9.06711 6.152 8.43383 6.526 7.84578 6.955L5.02994 5.855C4.96209 5.833 4.89424 5.822 4.82639 5.822C4.63414 5.822 4.4419 5.921 4.34012 6.097L2.0784 9.903C1.93139 10.145 1.99924 10.442 2.21411 10.607L4.60022 12.422C4.55498 12.774 4.52106 13.137 4.52106 13.5C4.52106 13.863 4.55498 14.226 4.60022 14.578L2.21411 16.393C1.99924 16.558 1.9427 16.855 2.0784 17.097L4.34012 20.903C4.4419 21.079 4.63415 21.178 4.8377 21.178C4.90555 21.178 4.9734 21.167 5.02994 21.145L7.84578 20.045C8.43383 20.485 9.06711 20.848 9.75693 21.123L10.1867 24.038C10.2206 24.302 10.4581 24.5 10.7408 24.5H15.2642C15.5469 24.5 15.7844 24.302 15.8183 24.038L16.2481 21.123C16.9379 20.848 17.5712 20.474 18.1592 20.045L20.975 21.145C21.0429 21.167 21.1108 21.178 21.1786 21.178C21.3709 21.178 21.5631 21.079 21.6649 20.903L23.9266 17.097C24.0623 16.855 24.0058 16.558 23.7909 16.393L21.4048 14.578ZM19.1657 12.697C19.2109 13.038 19.2222 13.269 19.2222 13.5C19.2222 13.731 19.1996 13.973 19.1657 14.303L19.0074 15.546L20.0138 16.316L21.2351 17.24L20.4435 18.571L19.0074 18.01L17.8313 17.548L16.8135 18.296C16.3272 18.648 15.8636 18.912 15.3999 19.099L14.2012 19.572L14.0203 20.815L13.7941 22.3H12.2109L11.8151 19.572L10.6164 19.099C10.1301 18.901 9.67777 18.648 9.22543 18.318L8.19635 17.548L6.99764 18.021L5.56145 18.582L4.76985 17.251L5.99118 16.327L6.99764 15.557L6.83932 14.314C6.80539 13.973 6.78278 13.72 6.78278 13.5C6.78278 13.28 6.80539 13.027 6.83932 12.697L6.99764 11.454L5.99118 10.684L4.76985 9.76L5.56145 8.429L6.99764 8.99L8.17373 9.452L9.1915 8.704C9.67777 8.352 10.1414 8.088 10.6051 7.901L11.8038 7.428L11.9847 6.185L12.2109 4.7H13.7828L14.1786 7.428L15.3773 7.901C15.8636 8.099 16.3159 8.352 16.7683 8.682L17.7973 9.452L18.996 8.979L20.4322 8.418L21.2238 9.749L20.0138 10.684L19.0074 11.454L19.1657 12.697ZM13.0025 9.1C10.5033 9.1 8.47906 11.069 8.47906 13.5C8.47906 15.931 10.5033 17.9 13.0025 17.9C15.5017 17.9 17.5259 15.931 17.5259 13.5C17.5259 11.069 15.5017 9.1 13.0025 9.1ZM13.0025 15.7C11.7586 15.7 10.7408 14.71 10.7408 13.5C10.7408 12.29 11.7586 11.3 13.0025 11.3C14.2464 11.3 15.2642 12.29 15.2642 13.5C15.2642 14.71 14.2464 15.7 13.0025 15.7Z" fill="currentColor"/>
</svg>
